<svg width="39" height="39" viewBox="0 0 39 39" xmlns="http://www.w3.org/2000/svg">
<path d="M29.2484 0.0081146L24.191 0C18.5092 0 14.8374 3.7672 14.8374 9.59795V14.0233H9.75244C9.31304 14.0233 8.95721 14.3795 8.95721 14.8189V21.2306C8.95721 21.67 9.31344 22.0259 9.75244 22.0259H14.8374V38.2048C14.8374 38.6442 15.1932 39 15.6326 39H22.2671C22.7065 39 23.0623 38.6438 23.0623 38.2048V22.0259H29.0078C29.4472 22.0259 29.803 21.67 29.803 21.2306L29.8054 14.8189C29.8054 14.6079 29.7215 14.4059 29.5726 14.2565C29.4237 14.1072 29.2208 14.0233 29.0098 14.0233H23.0623V10.2719C23.0623 8.46881 23.4919 7.55348 25.8407 7.55348L29.2476 7.55226C29.6866 7.55226 30.0424 7.19603 30.0424 6.75703V0.803346C30.0424 0.364751 29.687 0.00892606 29.2484 0.0081146Z" fill="white" fill-opacity="0.7"/>
</svg>
