<svg width="40" height="40" viewBox="0 0 40 40" xmlns="http://www.w3.org/2000/svg">
<g clip-path="url(#clip0)">
<path d="M20.0067 9.73001C14.335 9.73001 9.74335 14.3267 9.74335 19.9933C9.74335 25.665 14.34 30.2567 20.0067 30.2567C25.6783 30.2567 30.27 25.66 30.27 19.9933C30.27 14.3217 25.6733 9.73001 20.0067 9.73001ZM20.0067 26.655C16.325 26.655 13.345 23.6733 13.345 19.9933C13.345 16.3133 16.3267 13.3317 20.0067 13.3317C23.6867 13.3317 26.6683 16.3133 26.6683 19.9933C26.67 23.6733 23.6883 26.655 20.0067 26.655Z" fill="white" fill-opacity="0.7"/>
<path d="M28.2464 0.127384C24.5664 -0.0442827 15.4514 -0.0359494 11.7681 0.127384C8.53144 0.279051 5.67643 1.06072 3.37477 3.36238C-0.471898 7.20905 0.0197684 12.3924 0.0197684 19.9941C0.0197684 27.7741 -0.413565 32.8374 3.37477 36.6257C7.23643 40.4857 12.4948 39.9807 20.0064 39.9807C27.7131 39.9807 30.3731 39.9857 33.0981 38.9307C36.8031 37.4924 39.5998 34.1807 39.8731 28.2324C40.0464 24.5507 40.0364 15.4374 39.8731 11.7541C39.5431 4.73238 35.7748 0.474051 28.2464 0.127384ZM34.0714 34.0807C31.5498 36.6024 28.0514 36.3774 19.9581 36.3774C11.6248 36.3774 8.2831 36.5007 5.84477 34.0557C3.03643 31.2607 3.54477 26.7724 3.54477 19.9674C3.54477 10.7591 2.59977 4.12738 11.8414 3.65405C13.9648 3.57905 14.5898 3.55405 19.9348 3.55405L20.0098 3.60405C28.8914 3.60405 35.8598 2.67405 36.2781 11.9141C36.3731 14.0224 36.3948 14.6557 36.3948 19.9924C36.3931 28.2291 36.5498 31.5907 34.0714 34.0807Z" fill="white" fill-opacity="0.7"/>
<path d="M30.6767 11.7233C32.0012 11.7233 33.075 10.6496 33.075 9.325C33.075 8.00044 32.0012 6.92667 30.6767 6.92667C29.3521 6.92667 28.2783 8.00044 28.2783 9.325C28.2783 10.6496 29.3521 11.7233 30.6767 11.7233Z" fill="white" fill-opacity="0.7"/>
</g>
<defs>
<clipPath id="clip0">
<rect width="40" height="40" fill="white"/>
</clipPath>
</defs>
</svg>
