<svg width="54" height="53" viewBox="0 0 54 53" xmlns="http://www.w3.org/2000/svg">
<g clip-path="url(#clip0)">
<path d="M51.7634 35.7987C50.1557 33.906 48.2636 32.2907 46.4734 30.5754C44.8584 29.0293 44.7565 28.1323 46.0548 26.3478C47.4718 24.4002 48.9956 22.5273 50.4254 20.5885C51.7601 18.7765 53.1244 16.9695 53.8267 14.8C54.2721 13.4197 53.8782 12.81 52.4361 12.5684C52.1876 12.5261 51.9307 12.5239 51.6778 12.5239L43.1219 12.514C42.0682 12.4986 41.4856 12.9496 41.1129 13.8662C40.6099 15.1053 40.0911 16.3433 39.4918 17.539C38.1319 20.2501 36.6131 22.8706 34.4838 25.0895C34.0143 25.5789 33.495 26.1974 32.7104 25.9425C31.7289 25.591 31.4395 24.0037 31.4558 23.4671L31.4474 13.7745C31.2571 12.3899 30.9443 11.7725 29.5436 11.5034L20.6559 11.505C19.4695 11.505 18.8747 11.9549 18.2412 12.6832C17.8757 13.1039 17.7655 13.3769 18.5165 13.5164C19.9916 13.791 20.8226 14.728 21.0431 16.1797C21.3968 18.4991 21.3722 20.8279 21.1685 23.1567C21.1086 23.8367 20.9894 24.515 20.7146 25.1499C20.2849 26.1479 19.591 26.3511 18.6793 25.7371C17.8539 25.1812 17.2742 24.3969 16.7067 23.6093C14.5752 20.6533 12.8745 17.4654 11.4878 14.1156C11.0871 13.1478 10.396 12.5612 9.35123 12.5453C6.78431 12.5052 4.21682 12.4986 1.6499 12.5475C0.105376 12.5761 -0.355182 13.3121 0.273818 14.6863C3.06962 20.79 6.18161 26.7241 10.2438 32.1298C12.3295 34.904 14.724 37.3531 17.8176 39.0887C21.3235 41.0561 25.0975 41.6482 29.0724 41.4658C30.9337 41.3801 31.4927 40.9051 31.5789 39.0843C31.6371 37.8386 31.7809 36.6001 32.4071 35.4807C33.0216 34.3822 33.9522 34.1729 35.025 34.8562C35.5616 35.1984 36.0138 35.6339 36.4408 36.0931C37.4884 37.218 38.4984 38.3769 39.5858 39.4638C40.9495 40.826 42.5651 41.6306 44.5965 41.4664L52.4601 41.468C53.7271 41.3867 54.3841 39.862 53.6566 38.4741C53.1456 37.5019 52.4752 36.6363 51.7634 35.7987Z" fill="white" fill-opacity="0.7"/>
</g>
<defs>
<clipPath id="clip0">
<rect width="54" height="53" fill="white"/>
</clipPath>
</defs>
</svg>
