<?xml version="1.0" encoding="utf-8"?><svg viewBox="0 0 54 53" xmlns="http://www.w3.org/2000/svg" xmlns:xlink="http://www.w3.org/1999/xlink"><style>:root>svg{display:none}:root>svg:target{display:block}</style><svg fill="none" viewBox="0 0 39 39" id="social--facebook" xmlns="http://www.w3.org/2000/svg"><path d="M29.248.008L24.191 0c-5.682 0-9.354 3.767-9.354 9.598v4.425H9.752a.795.795 0 00-.795.796v6.412c0 .439.356.795.795.795h5.085v16.179c0 .44.356.795.796.795h6.634c.44 0 .795-.356.795-.795v-16.18h5.946c.44 0 .795-.355.795-.794l.002-6.412a.797.797 0 00-.795-.796h-5.948v-3.751c0-1.803.43-2.719 2.779-2.719h3.407a.795.795 0 00.794-.796V.803a.795.795 0 00-.794-.795z" fill="#fff" fill-opacity=".7"/></svg><svg fill="none" viewBox="0 0 40 40" id="social--inst" xmlns="http://www.w3.org/2000/svg"><g clip-path="url(#bclip0)" fill="#fff" fill-opacity=".7"><path d="M20.007 9.73c-5.672 0-10.264 4.597-10.264 10.263 0 5.672 4.597 10.264 10.264 10.264 5.671 0 10.263-4.597 10.263-10.264 0-5.671-4.597-10.263-10.263-10.263zm0 16.925a6.66 6.66 0 01-6.662-6.662 6.66 6.66 0 016.662-6.661 6.66 6.66 0 016.661 6.661 6.658 6.658 0 01-6.661 6.662z"/><path d="M28.246.127c-3.68-.171-12.795-.163-16.478 0-3.237.152-6.092.934-8.393 3.235C-.472 7.21.02 12.392.02 19.994c0 7.78-.434 12.843 3.355 16.632 3.861 3.86 9.12 3.355 16.631 3.355 7.707 0 10.367.005 13.092-1.05 3.705-1.439 6.502-4.75 6.775-10.699.173-3.681.163-12.795 0-16.478C39.543 4.732 35.775.474 28.246.127zm5.825 33.954c-2.521 2.521-6.02 2.296-14.113 2.296-8.333 0-11.675.124-14.113-2.321-2.809-2.795-2.3-7.284-2.3-14.089 0-9.208-.945-15.84 8.296-16.313 2.124-.075 2.749-.1 8.094-.1l.075.05c8.881 0 15.85-.93 16.268 8.31.095 2.108.117 2.742.117 8.078-.002 8.237.155 11.599-2.324 14.089z"/><path d="M30.677 11.723a2.398 2.398 0 100-4.796 2.398 2.398 0 000 4.796z"/></g><defs><clipPath id="bclip0"><path fill="#fff" d="M0 0h40v40H0z"/></clipPath></defs></svg><svg fill="none" viewBox="0 0 39 39" id="social--telega" xmlns="http://www.w3.org/2000/svg"><g clip-path="url(#cclip0)"><path d="M15.303 24.67l-.646 9.073c.924 0 1.323-.396 1.803-.873l4.327-4.135 8.967 6.566c1.644.917 2.803.434 3.247-1.512l5.885-27.58.002-.002c.522-2.43-.88-3.381-2.481-2.785L1.81 16.668c-2.36.916-2.325 2.232-.401 2.829l8.845 2.75L30.799 9.393c.966-.64 1.846-.286 1.123.355l-16.62 14.922z" fill="#fff" fill-opacity=".7"/></g><defs><clipPath id="cclip0"><path fill="#fff" d="M0 0h39v39H0z"/></clipPath></defs></svg><svg fill="none" viewBox="0 0 54 53" id="social--vk" xmlns="http://www.w3.org/2000/svg"><g clip-path="url(#dclip0)"><path d="M51.763 35.799c-1.607-1.893-3.5-3.508-5.29-5.224-1.615-1.546-1.716-2.443-.418-4.227 1.417-1.948 2.94-3.82 4.37-5.76 1.335-1.812 2.7-3.619 3.402-5.788.445-1.38.051-1.99-1.39-2.232a4.535 4.535 0 00-.76-.044l-8.555-.01c-1.054-.015-1.636.436-2.01 1.352-.502 1.24-1.02 2.477-1.62 3.673-1.36 2.711-2.879 5.332-5.008 7.55-.47.49-.989 1.108-1.774.854-.981-.352-1.27-1.94-1.254-2.476l-.009-9.692c-.19-1.385-.503-2.002-1.903-2.272l-8.888.002c-1.186 0-1.781.45-2.415 1.178-.365.42-.476.694.276.833 1.475.275 2.306 1.212 2.526 2.664.354 2.32.33 4.648.126 6.977-.06.68-.18 1.358-.454 1.993-.43.998-1.124 1.201-2.036.587-.825-.556-1.405-1.34-1.972-2.128-2.132-2.956-3.833-6.144-5.22-9.493-.4-.968-1.091-1.555-2.136-1.57-2.567-.04-5.134-.047-7.701.002-1.545.028-2.005.764-1.376 2.138 2.796 6.104 5.908 12.038 9.97 17.444 2.085 2.774 4.48 5.223 7.574 6.959 3.505 1.967 7.28 2.56 11.254 2.377 1.862-.086 2.42-.56 2.507-2.382.058-1.245.202-2.484.828-3.603.615-1.099 1.545-1.308 2.618-.625.537.342.989.778 1.416 1.237 1.047 1.125 2.057 2.284 3.145 3.37 1.364 1.363 2.98 2.168 5.01 2.003l7.864.002c1.267-.081 1.924-1.606 1.197-2.994-.511-.972-1.182-1.838-1.894-2.675z" fill="#fff" fill-opacity=".7"/></g><defs><clipPath id="dclip0"><path fill="#fff" d="M0 0h54v53H0z"/></clipPath></defs></svg></svg>